<mxfile host="65bd71144e">
    <diagram name="rustc" id="O0RZkYsMxSZoFVk0Ot56">
        <mxGraphModel dx="810" dy="527" grid="1" gridSize="10" guides="1" tooltips="1" connect="1" arrows="1" fold="1" page="1" pageScale="1" pageWidth="850" pageHeight="1100" math="0" shadow="1">
            <root>
                <mxCell id="0"/>
                <mxCell id="1" parent="0"/>
                <mxCell id="bSYMlox3lfzxIb---pLw-85" value="Compiler Outputs" style="whiteSpace=wrap;html=1;verticalAlign=top;fillColor=none;dashed=1;" parent="1" vertex="1">
                    <mxGeometry x="560.84" y="530" width="159.16" height="170" as="geometry"/>
                </mxCell>
                <mxCell id="6" value="Analysis" style="rounded=0;whiteSpace=wrap;html=1;fillColor=none;verticalAlign=top;dashed=1;" parent="1" vertex="1">
                    <mxGeometry x="230" y="530" width="320" height="280" as="geometry"/>
                </mxCell>
                <mxCell id="53NiaUR1xSCXWvQlfWoQ-10" value="parse, macro&lt;br&gt;expansion" style="edgeStyle=orthogonalEdgeStyle;rounded=0;orthogonalLoop=1;jettySize=auto;html=1;labelBackgroundColor=none;labelBorderColor=none;" parent="1" source="53NiaUR1xSCXWvQlfWoQ-8" target="53NiaUR1xSCXWvQlfWoQ-9" edge="1">
                    <mxGeometry y="15" relative="1" as="geometry">
                        <mxPoint as="offset"/>
                    </mxGeometry>
                </mxCell>
                <mxCell id="bSYMlox3lfzxIb---pLw-84" value="Semantic" style="whiteSpace=wrap;html=1;verticalAlign=top;fillColor=none;dashed=1;" parent="1" vertex="1">
                    <mxGeometry x="398.37" y="560" width="141.63" height="230" as="geometry"/>
                </mxCell>
                <mxCell id="53NiaUR1xSCXWvQlfWoQ-8" value="Rust source&lt;br&gt;&lt;pre&gt;&lt;span style=&quot;background-color: initial;&quot;&gt;.rs&lt;/span&gt;&lt;/pre&gt;" style="whiteSpace=wrap;html=1;shape=mxgraph.basic.document;fillColor=#6d8764;strokeColor=#3A5431;fontColor=#ffffff;verticalAlign=top;" parent="1" vertex="1">
                    <mxGeometry x="230" y="470" width="80" height="50" as="geometry"/>
                </mxCell>
                <mxCell id="3" value="" style="edgeStyle=orthogonalEdgeStyle;html=1;jumpSize=1;entryX=0.5;entryY=0;entryDx=0;entryDy=0;exitX=0.5;exitY=1;exitDx=0;exitDy=0;" parent="1" source="53NiaUR1xSCXWvQlfWoQ-9" target="2" edge="1">
                    <mxGeometry x="-0.0527" y="20" relative="1" as="geometry">
                        <mxPoint x="490" y="560" as="targetPoint"/>
                        <Array as="points">
                            <mxPoint x="420" y="550"/>
                            <mxPoint x="320" y="550"/>
                        </Array>
                        <mxPoint x="-18" y="-20" as="offset"/>
                    </mxGeometry>
                </mxCell>
                <mxCell id="53NiaUR1xSCXWvQlfWoQ-9" value="Rust AST" style="whiteSpace=wrap;html=1;fillColor=#6d8764;fontColor=#ffffff;strokeColor=#3A5431;" parent="1" vertex="1">
                    <mxGeometry x="390" y="480" width="60" height="30" as="geometry"/>
                </mxCell>
                <mxCell id="9" value="type check" style="edgeStyle=orthogonalEdgeStyle;jumpSize=1;html=1;exitX=1;exitY=0.5;exitDx=0;exitDy=0;labelBackgroundColor=none;" parent="1" source="15" target="8" edge="1">
                    <mxGeometry x="-0.2486" y="10" relative="1" as="geometry">
                        <mxPoint as="offset"/>
                    </mxGeometry>
                </mxCell>
                <mxCell id="12" value="" style="edgeStyle=orthogonalEdgeStyle;jumpSize=1;html=1;" parent="1" source="8" target="11" edge="1">
                    <mxGeometry relative="1" as="geometry"/>
                </mxCell>
                <mxCell id="8" value="Typed HIR" style="whiteSpace=wrap;html=1;fillColor=#647687;fontColor=#ffffff;strokeColor=#314354;" parent="1" vertex="1">
                    <mxGeometry x="404" y="585" width="42.5" height="30" as="geometry"/>
                </mxCell>
                <mxCell id="27" value="borrow&lt;br&gt;check" style="edgeStyle=none;html=1;labelBackgroundColor=default;" parent="1" source="11" target="26" edge="1">
                    <mxGeometry x="-0.1111" y="20" relative="1" as="geometry">
                        <mxPoint as="offset"/>
                    </mxGeometry>
                </mxCell>
                <mxCell id="bSYMlox3lfzxIb---pLw-88" style="edgeStyle=orthogonalEdgeStyle;html=1;entryX=0;entryY=0.5;entryDx=0;entryDy=0;startArrow=classic;startFill=1;endArrow=none;endFill=0;exitX=1;exitY=1;exitDx=0;exitDy=0;" parent="1" source="11" target="31" edge="1">
                    <mxGeometry relative="1" as="geometry">
                        <mxPoint x="530" y="620" as="sourcePoint"/>
                        <Array as="points">
                            <mxPoint x="530" y="660"/>
                        </Array>
                    </mxGeometry>
                </mxCell>
                <mxCell id="11" value="MIR" style="whiteSpace=wrap;html=1;fillColor=#647687;fontColor=#ffffff;strokeColor=#314354;" parent="1" vertex="1">
                    <mxGeometry x="489" y="590" width="41" height="20" as="geometry"/>
                </mxCell>
                <mxCell id="36" value="codegen&lt;br&gt;link" style="edgeStyle=orthogonalEdgeStyle;html=1;labelBackgroundColor=none;" parent="1" source="26" target="35" edge="1">
                    <mxGeometry x="-0.0664" y="20" relative="1" as="geometry">
                        <mxPoint as="offset"/>
                    </mxGeometry>
                </mxCell>
                <mxCell id="26" value="LLVM IR" style="whiteSpace=wrap;html=1;fillColor=#647687;fontColor=#ffffff;strokeColor=#314354;" parent="1" vertex="1">
                    <mxGeometry x="575" y="590" width="57.49" height="20" as="geometry"/>
                </mxCell>
                <mxCell id="31" value="Crate metadata&lt;br&gt;&lt;pre&gt;.rmeta&lt;/pre&gt;" style="whiteSpace=wrap;html=1;verticalAlign=top;fillColor=#76608a;fontColor=#ffffff;strokeColor=#432D57;" parent="1" vertex="1">
                    <mxGeometry x="620" y="632.5" width="92.47" height="55" as="geometry"/>
                </mxCell>
                <mxCell id="34" value="" style="group" parent="1" vertex="1" connectable="0">
                    <mxGeometry x="250" y="580" width="140" height="210" as="geometry"/>
                </mxCell>
                <mxCell id="2" value="Rust HIR (Syntactic)" style="whiteSpace=wrap;html=1;verticalAlign=top;fillColor=none;" parent="34" vertex="1">
                    <mxGeometry y="-20" width="140" height="230" as="geometry"/>
                </mxCell>
                <mxCell id="15" value="Functions" style="whiteSpace=wrap;html=1;fillColor=#647687;strokeColor=#314354;fontColor=#ffffff;" parent="34" vertex="1">
                    <mxGeometry x="7.5" y="10" width="60" height="20" as="geometry"/>
                </mxCell>
                <mxCell id="bSYMlox3lfzxIb---pLw-83" style="html=1;startArrow=diamondThin;startFill=0;endArrow=none;endFill=0;exitX=1;exitY=1;exitDx=0;exitDy=0;entryX=0.5;entryY=0;entryDx=0;entryDy=0;edgeStyle=orthogonalEdgeStyle;" parent="34" source="16" target="37" edge="1">
                    <mxGeometry relative="1" as="geometry">
                        <Array as="points">
                            <mxPoint x="86" y="125"/>
                        </Array>
                    </mxGeometry>
                </mxCell>
                <mxCell id="16" value="Traits" style="whiteSpace=wrap;html=1;fillColor=#76608a;fontColor=#ffffff;strokeColor=#432D57;" parent="34" vertex="1">
                    <mxGeometry x="7.5" y="105" width="62.5" height="20" as="geometry"/>
                </mxCell>
                <mxCell id="17" value="ADTs" style="whiteSpace=wrap;html=1;fillColor=#76608a;fontColor=#ffffff;strokeColor=#432D57;" parent="34" vertex="1">
                    <mxGeometry x="7.5" y="70" width="62.5" height="20" as="geometry"/>
                </mxCell>
                <mxCell id="74" value="Trait impls" style="whiteSpace=wrap;html=1;fillColor=#a0522d;fontColor=#ffffff;strokeColor=#6D1F00;" parent="34" vertex="1">
                    <mxGeometry x="7.5" y="180" width="62.5" height="20" as="geometry"/>
                </mxCell>
                <mxCell id="39" style="html=1;entryX=0.5;entryY=0;entryDx=0;entryDy=0;exitX=1;exitY=1;exitDx=0;exitDy=0;endArrow=none;endFill=0;edgeStyle=orthogonalEdgeStyle;startArrow=diamondThin;startFill=0;" parent="34" source="17" target="37" edge="1">
                    <mxGeometry relative="1" as="geometry">
                        <Array as="points">
                            <mxPoint x="86" y="90"/>
                            <mxPoint x="86" y="115"/>
                            <mxPoint x="86" y="115"/>
                        </Array>
                    </mxGeometry>
                </mxCell>
                <mxCell id="37" value="Generic bounds" style="rounded=0;whiteSpace=wrap;html=1;fillColor=#a0522d;fontColor=#ffffff;strokeColor=#6D1F00;" parent="34" vertex="1">
                    <mxGeometry x="41.58" y="140" width="88.42" height="20" as="geometry"/>
                </mxCell>
                <mxCell id="68" style="html=1;entryX=0.5;entryY=1;entryDx=0;entryDy=0;exitX=1;exitY=0;exitDx=0;exitDy=0;endArrow=none;endFill=0;edgeStyle=orthogonalEdgeStyle;startArrow=diamondThin;startFill=0;" parent="34" source="74" target="37" edge="1">
                    <mxGeometry relative="1" as="geometry">
                        <mxPoint x="140" y="70" as="targetPoint"/>
                        <Array as="points">
                            <mxPoint x="86" y="180"/>
                        </Array>
                    </mxGeometry>
                </mxCell>
                <mxCell id="38" style="html=1;entryX=0.5;entryY=0;entryDx=0;entryDy=0;endArrow=none;endFill=0;edgeStyle=orthogonalEdgeStyle;startArrow=diamondThin;startFill=0;" parent="34" target="37" edge="1">
                    <mxGeometry relative="1" as="geometry">
                        <mxPoint x="68" y="30" as="sourcePoint"/>
                        <mxPoint x="74" y="140" as="targetPoint"/>
                        <Array as="points">
                            <mxPoint x="68" y="30"/>
                            <mxPoint x="86" y="30"/>
                        </Array>
                    </mxGeometry>
                </mxCell>
                <mxCell id="35" value="binary/&lt;br&gt;library" style="whiteSpace=wrap;html=1;fillColor=#647687;fontColor=#ffffff;strokeColor=#314354;" parent="1" vertex="1">
                    <mxGeometry x="660" y="580" width="52.47" height="40" as="geometry"/>
                </mxCell>
                <mxCell id="48" style="edgeStyle=orthogonalEdgeStyle;html=1;startArrow=none;entryX=0.447;entryY=-0.019;entryDx=0;entryDy=0;entryPerimeter=0;exitX=0.5;exitY=1;exitDx=0;exitDy=0;" parent="1" source="bSYMlox3lfzxIb---pLw-79" target="60" edge="1">
                    <mxGeometry relative="1" as="geometry">
                        <mxPoint x="440.6350000000001" y="700" as="targetPoint"/>
                        <Array as="points"/>
                    </mxGeometry>
                </mxCell>
                <mxCell id="46" style="edgeStyle=orthogonalEdgeStyle;html=1;exitX=1;exitY=0.5;exitDx=0;exitDy=0;" parent="1" source="74" target="60" edge="1">
                    <mxGeometry relative="1" as="geometry">
                        <mxPoint x="401.27" y="710" as="targetPoint"/>
                    </mxGeometry>
                </mxCell>
                <mxCell id="60" value="Trait resolver" style="html=1;shadow=0;dashed=0;align=center;verticalAlign=middle;shape=mxgraph.arrows2.calloutArrow;dy=10;dx=20;notch=46.03;arrowHead=10;rounded=1;glass=0;sketch=0;fontColor=#ffffff;fillColor=#a0522d;strokeColor=#6D1F00;" parent="1" vertex="1">
                    <mxGeometry x="404" y="755" width="85" height="30" as="geometry"/>
                </mxCell>
                <mxCell id="66" style="edgeStyle=orthogonalEdgeStyle;html=1;fontColor=default;" parent="1" source="17" target="67" edge="1">
                    <mxGeometry relative="1" as="geometry">
                        <mxPoint x="420" y="670" as="targetPoint"/>
                    </mxGeometry>
                </mxCell>
                <mxCell id="ZkLgHvKyFAArn3c0_8hO-73" style="edgeStyle=orthogonalEdgeStyle;html=1;fontColor=default;startArrow=classic;startFill=1;" parent="1" source="67" target="31" edge="1">
                    <mxGeometry relative="1" as="geometry">
                        <mxPoint x="550" y="680" as="targetPoint"/>
                    </mxGeometry>
                </mxCell>
                <mxCell id="DUoSPmeixnJnlSwUqEJC-81" value="encode/&lt;br&gt;decode" style="edgeLabel;html=1;align=center;verticalAlign=middle;resizable=0;points=[];labelBackgroundColor=none;" parent="ZkLgHvKyFAArn3c0_8hO-73" vertex="1" connectable="0">
                    <mxGeometry x="-0.3824" y="-2" relative="1" as="geometry">
                        <mxPoint x="67" y="-22" as="offset"/>
                    </mxGeometry>
                </mxCell>
                <mxCell id="ZkLgHvKyFAArn3c0_8hO-69" value="" style="group" parent="1" vertex="1" connectable="0">
                    <mxGeometry x="488.37" y="755" width="50" height="10" as="geometry"/>
                </mxCell>
                <mxCell id="KldNDyl6bdEIkrMqLL-C-79" value="" style="group" parent="ZkLgHvKyFAArn3c0_8hO-69" vertex="1" connectable="0">
                    <mxGeometry width="50" height="10" as="geometry"/>
                </mxCell>
                <mxCell id="ZkLgHvKyFAArn3c0_8hO-67" value="" style="verticalLabelPosition=bottom;verticalAlign=top;html=1;shape=mxgraph.basic.tick;rounded=1;shadow=0;glass=0;sketch=0;fontColor=#ffffff;fillColor=#60a917;strokeColor=#2D7600;" parent="KldNDyl6bdEIkrMqLL-C-79" vertex="1">
                    <mxGeometry width="10" height="10" as="geometry"/>
                </mxCell>
                <mxCell id="ZkLgHvKyFAArn3c0_8hO-68" value="Pass" style="text;html=1;strokeColor=none;fillColor=none;align=center;verticalAlign=middle;whiteSpace=wrap;rounded=0;shadow=0;glass=0;sketch=0;fontColor=default;" parent="KldNDyl6bdEIkrMqLL-C-79" vertex="1">
                    <mxGeometry x="10" width="40" height="10" as="geometry"/>
                </mxCell>
                <mxCell id="ZkLgHvKyFAArn3c0_8hO-72" value="" style="group" parent="1" vertex="1" connectable="0">
                    <mxGeometry x="489" y="775" width="49.370000000000005" height="10" as="geometry"/>
                </mxCell>
                <mxCell id="ZkLgHvKyFAArn3c0_8hO-70" value="Error" style="text;html=1;strokeColor=none;fillColor=none;align=center;verticalAlign=middle;whiteSpace=wrap;rounded=0;shadow=0;glass=0;sketch=0;fontColor=default;" parent="ZkLgHvKyFAArn3c0_8hO-72" vertex="1">
                    <mxGeometry x="9.370000000000005" width="40" height="10" as="geometry"/>
                </mxCell>
                <mxCell id="ZkLgHvKyFAArn3c0_8hO-71" value="" style="verticalLabelPosition=bottom;verticalAlign=top;html=1;shape=mxgraph.basic.x;rounded=1;shadow=0;glass=0;sketch=0;fontColor=#ffffff;fillColor=#a20025;strokeColor=#6F0000;" parent="ZkLgHvKyFAArn3c0_8hO-72" vertex="1">
                    <mxGeometry width="10" height="10" as="geometry"/>
                </mxCell>
                <mxCell id="67" value="AdtDefData" style="rounded=0;whiteSpace=wrap;html=1;shadow=0;glass=0;sketch=0;fontColor=#ffffff;fillColor=#76608a;strokeColor=#432D57;" parent="1" vertex="1">
                    <mxGeometry x="404" y="650" width="76" height="20" as="geometry"/>
                </mxCell>
                <mxCell id="73" style="edgeStyle=orthogonalEdgeStyle;html=1;entryX=0;entryY=0.5;entryDx=0;entryDy=0;startArrow=classic;startFill=1;" parent="1" source="71" target="31" edge="1">
                    <mxGeometry relative="1" as="geometry">
                        <Array as="points">
                            <mxPoint x="530" y="630"/>
                            <mxPoint x="530" y="660"/>
                        </Array>
                    </mxGeometry>
                </mxCell>
                <mxCell id="71" value="FnSig" style="whiteSpace=wrap;html=1;fillColor=#76608a;fontColor=#ffffff;strokeColor=#432D57;" parent="1" vertex="1">
                    <mxGeometry x="404" y="620" width="76" height="20" as="geometry"/>
                </mxCell>
                <mxCell id="72" style="edgeStyle=orthogonalEdgeStyle;html=1;entryX=0;entryY=0.5;entryDx=0;entryDy=0;exitX=0.5;exitY=1;exitDx=0;exitDy=0;" parent="1" source="15" target="71" edge="1">
                    <mxGeometry relative="1" as="geometry">
                        <Array as="points">
                            <mxPoint x="288" y="630"/>
                        </Array>
                    </mxGeometry>
                </mxCell>
                <mxCell id="79" style="edgeStyle=orthogonalEdgeStyle;html=1;entryX=0;entryY=0.5;entryDx=0;entryDy=0;startArrow=classic;startFill=1;" parent="1" source="77" target="31" edge="1">
                    <mxGeometry relative="1" as="geometry">
                        <Array as="points">
                            <mxPoint x="530" y="695"/>
                            <mxPoint x="530" y="660"/>
                        </Array>
                    </mxGeometry>
                </mxCell>
                <mxCell id="77" value="TraitDef" style="rounded=0;whiteSpace=wrap;html=1;shadow=0;glass=0;sketch=0;fontColor=#ffffff;fillColor=#76608a;strokeColor=#432D57;" parent="1" vertex="1">
                    <mxGeometry x="404" y="685" width="76" height="20" as="geometry"/>
                </mxCell>
                <mxCell id="78" style="edgeStyle=orthogonalEdgeStyle;html=1;" parent="1" source="16" target="77" edge="1">
                    <mxGeometry relative="1" as="geometry"/>
                </mxCell>
                <mxCell id="bSYMlox3lfzxIb---pLw-79" value="Obligations" style="rounded=0;whiteSpace=wrap;html=1;fillColor=#a0522d;fontColor=#ffffff;strokeColor=#6D1F00;" parent="1" vertex="1">
                    <mxGeometry x="404" y="720" width="76" height="20" as="geometry"/>
                </mxCell>
                <mxCell id="bSYMlox3lfzxIb---pLw-81" style="edgeStyle=orthogonalEdgeStyle;html=1;endArrow=classic;endFill=1;" parent="1" source="37" target="bSYMlox3lfzxIb---pLw-79" edge="1">
                    <mxGeometry relative="1" as="geometry"/>
                </mxCell>
            </root>
        </mxGraphModel>
    </diagram>
    <diagram id="twoxSmdrBkjrBd2nOvRK" name="rpl">
        <mxGraphModel dx="771" dy="502" grid="1" gridSize="10" guides="1" tooltips="1" connect="1" arrows="1" fold="1" page="1" pageScale="1" pageWidth="850" pageHeight="1100" math="0" shadow="1">
            <root>
                <mxCell id="0"/>
                <mxCell id="1" parent="0"/>
                <mxCell id="H6pvp_RHg-aZ4OdUbq1S-4" value="" style="edgeStyle=orthogonalEdgeStyle;html=1;fontColor=default;startArrow=classic;startFill=1;labelBackgroundColor=none;" parent="1" source="eTvVOd9cNPmdmBw-fqID-6" target="XY6G91EjcQ-K4pBI4ESq-1" edge="1">
                    <mxGeometry x="-0.1429" y="10" relative="1" as="geometry">
                        <mxPoint as="offset"/>
                    </mxGeometry>
                </mxCell>
                <mxCell id="H6pvp_RHg-aZ4OdUbq1S-5" value="" style="edgeStyle=orthogonalEdgeStyle;html=1;fontColor=default;startArrow=classic;startFill=1;labelBackgroundColor=none;" parent="1" source="eTvVOd9cNPmdmBw-fqID-7" target="H6pvp_RHg-aZ4OdUbq1S-1" edge="1">
                    <mxGeometry x="-0.3333" y="10" relative="1" as="geometry">
                        <mxPoint as="offset"/>
                    </mxGeometry>
                </mxCell>
                <mxCell id="H6pvp_RHg-aZ4OdUbq1S-3" value="" style="edgeStyle=orthogonalEdgeStyle;html=1;entryX=0;entryY=0.5;entryDx=0;entryDy=0;fontColor=default;startArrow=classic;startFill=1;labelBackgroundColor=none;" parent="1" source="QgZFyry-RJ3dXj2PPVCZ-3" target="GSg-axgQQWw6CWPi8GEb-1" edge="1">
                    <mxGeometry x="-0.0496" y="10" relative="1" as="geometry">
                        <mxPoint as="offset"/>
                    </mxGeometry>
                </mxCell>
                <mxCell id="QKzRJREexP9qz1aJr5xE-1" value="RPL parser" style="html=1;shadow=0;dashed=0;align=center;verticalAlign=middle;shape=mxgraph.arrows2.arrow;dy=0.51;dx=40.29;notch=0;rounded=1;glass=0;sketch=0;fontColor=default;fillColor=none;" parent="1" vertex="1">
                    <mxGeometry x="310" y="830" width="90" height="40" as="geometry"/>
                </mxCell>
                <mxCell id="H6pvp_RHg-aZ4OdUbq1S-2" value="" style="endArrow=classic;startArrow=classic;html=1;fontColor=default;entryX=0;entryY=0.5;entryDx=0;entryDy=0;exitX=1;exitY=0.5;exitDx=0;exitDy=0;" parent="1" source="QgZFyry-RJ3dXj2PPVCZ-2" target="DA0rf78EoU95HVWTaKWY-1" edge="1">
                    <mxGeometry width="50" height="50" relative="1" as="geometry">
                        <mxPoint x="415" y="830" as="sourcePoint"/>
                        <mxPoint x="465" y="780" as="targetPoint"/>
                    </mxGeometry>
                </mxCell>
                <mxCell id="fROBw64iNzhaSTQ4F8GG-5" value="" style="group" parent="1" vertex="1" connectable="0">
                    <mxGeometry x="160" y="760" width="150" height="250" as="geometry"/>
                </mxCell>
                <mxCell id="fROBw64iNzhaSTQ4F8GG-1" value="RPL patterns" style="whiteSpace=wrap;html=1;verticalAlign=top;fillColor=none;" parent="fROBw64iNzhaSTQ4F8GG-5" vertex="1">
                    <mxGeometry width="150" height="250" as="geometry"/>
                </mxCell>
                <mxCell id="fROBw64iNzhaSTQ4F8GG-2" value="Dataflow patterns" style="rounded=0;whiteSpace=wrap;html=1;labelBackgroundColor=none;fillColor=#647687;fontColor=#ffffff;strokeColor=#314354;" parent="fROBw64iNzhaSTQ4F8GG-5" vertex="1">
                    <mxGeometry x="15" y="50" width="120" height="20" as="geometry"/>
                </mxCell>
                <mxCell id="fROBw64iNzhaSTQ4F8GG-3" value="Type patterns" style="rounded=0;whiteSpace=wrap;html=1;labelBackgroundColor=none;fillColor=#76608a;fontColor=#ffffff;strokeColor=#432D57;" parent="fROBw64iNzhaSTQ4F8GG-5" vertex="1">
                    <mxGeometry x="15" y="100" width="120" height="20" as="geometry"/>
                </mxCell>
                <mxCell id="fROBw64iNzhaSTQ4F8GG-4" value="GenBound patterns" style="rounded=0;whiteSpace=wrap;html=1;labelBackgroundColor=none;fillColor=#a0522d;fontColor=#ffffff;strokeColor=#6D1F00;" parent="fROBw64iNzhaSTQ4F8GG-5" vertex="1">
                    <mxGeometry x="15" y="130" width="120" height="20" as="geometry"/>
                </mxCell>
                <mxCell id="mKT09To0TTilSE9evV7E-3" value="Diagnostic patterns" style="rounded=0;whiteSpace=wrap;html=1;labelBackgroundColor=none;fillColor=#e3c800;fontColor=#000000;strokeColor=#B09500;" vertex="1" parent="fROBw64iNzhaSTQ4F8GG-5">
                    <mxGeometry x="15" y="200" width="120" height="20" as="geometry"/>
                </mxCell>
                <mxCell id="fROBw64iNzhaSTQ4F8GG-6" style="edgeStyle=orthogonalEdgeStyle;html=1;labelBackgroundColor=default;startArrow=none;startFill=0;endArrow=classic;endFill=1;" parent="1" source="fROBw64iNzhaSTQ4F8GG-2" target="QgZFyry-RJ3dXj2PPVCZ-2" edge="1">
                    <mxGeometry relative="1" as="geometry">
                        <mxPoint x="405" y="820" as="targetPoint"/>
                        <Array as="points">
                            <mxPoint x="420" y="820"/>
                            <mxPoint x="420" y="800"/>
                        </Array>
                    </mxGeometry>
                </mxCell>
                <mxCell id="fROBw64iNzhaSTQ4F8GG-7" style="edgeStyle=orthogonalEdgeStyle;html=1;labelBackgroundColor=default;startArrow=none;startFill=0;endArrow=classic;endFill=1;" parent="1" source="fROBw64iNzhaSTQ4F8GG-3" target="eTvVOd9cNPmdmBw-fqID-6" edge="1">
                    <mxGeometry relative="1" as="geometry"/>
                </mxCell>
                <mxCell id="fROBw64iNzhaSTQ4F8GG-8" style="edgeStyle=orthogonalEdgeStyle;html=1;labelBackgroundColor=default;startArrow=none;startFill=0;endArrow=classic;endFill=1;" parent="1" source="fROBw64iNzhaSTQ4F8GG-4" target="eTvVOd9cNPmdmBw-fqID-7" edge="1">
                    <mxGeometry relative="1" as="geometry"/>
                </mxCell>
                <mxCell id="fROBw64iNzhaSTQ4F8GG-11" value="" style="group" parent="1" vertex="1" connectable="0">
                    <mxGeometry x="650" y="760" width="170" height="160" as="geometry"/>
                </mxCell>
                <mxCell id="6J2mVfzkrphPJGp8fJXJ-1" value="rustc TyCtxt" style="whiteSpace=wrap;html=1;verticalAlign=top;fillColor=none;dashed=1;" parent="fROBw64iNzhaSTQ4F8GG-11" vertex="1">
                    <mxGeometry width="150" height="160" as="geometry"/>
                </mxCell>
                <mxCell id="GSg-axgQQWw6CWPi8GEb-1" value="MIR" style="whiteSpace=wrap;html=1;fillColor=#647687;fontColor=#ffffff;strokeColor=#314354;" parent="fROBw64iNzhaSTQ4F8GG-11" vertex="1">
                    <mxGeometry x="48.129999999999995" y="70" width="43.75" height="20" as="geometry"/>
                </mxCell>
                <mxCell id="DA0rf78EoU95HVWTaKWY-1" value="HIR" style="whiteSpace=wrap;html=1;fillColor=#647687;fontColor=#ffffff;strokeColor=#314354;" parent="fROBw64iNzhaSTQ4F8GG-11" vertex="1">
                    <mxGeometry x="48.75" y="30" width="42.5" height="20" as="geometry"/>
                </mxCell>
                <mxCell id="XY6G91EjcQ-K4pBI4ESq-1" value="AdtDef/TraitDef/FnSig" style="whiteSpace=wrap;html=1;fillColor=#76608a;fontColor=#ffffff;strokeColor=#432D57;" parent="fROBw64iNzhaSTQ4F8GG-11" vertex="1">
                    <mxGeometry x="5" y="100" width="138.12" height="20" as="geometry"/>
                </mxCell>
                <mxCell id="H6pvp_RHg-aZ4OdUbq1S-1" value="Generic bounds" style="whiteSpace=wrap;html=1;fillColor=#a0522d;fontColor=#ffffff;strokeColor=#6D1F00;" parent="fROBw64iNzhaSTQ4F8GG-11" vertex="1">
                    <mxGeometry x="25" y="130" width="98.12" height="20" as="geometry"/>
                </mxCell>
                <mxCell id="fROBw64iNzhaSTQ4F8GG-12" style="edgeStyle=orthogonalEdgeStyle;html=1;labelBackgroundColor=default;startArrow=none;startFill=0;endArrow=classic;endFill=1;" parent="1" source="fROBw64iNzhaSTQ4F8GG-2" target="QgZFyry-RJ3dXj2PPVCZ-3" edge="1">
                    <mxGeometry relative="1" as="geometry">
                        <Array as="points">
                            <mxPoint x="420" y="820"/>
                            <mxPoint x="420" y="840"/>
                        </Array>
                    </mxGeometry>
                </mxCell>
                <mxCell id="fROBw64iNzhaSTQ4F8GG-13" value="" style="group" parent="1" vertex="1" connectable="0">
                    <mxGeometry x="400" y="760" width="150" height="250" as="geometry"/>
                </mxCell>
                <mxCell id="eTvVOd9cNPmdmBw-fqID-3" value="Compiled rules" style="whiteSpace=wrap;html=1;verticalAlign=top;fillColor=none;" parent="fROBw64iNzhaSTQ4F8GG-13" vertex="1">
                    <mxGeometry width="150" height="250" as="geometry"/>
                </mxCell>
                <mxCell id="eTvVOd9cNPmdmBw-fqID-6" value="Type rules" style="whiteSpace=wrap;html=1;fillColor=#76608a;fontColor=#ffffff;strokeColor=#432D57;" parent="fROBw64iNzhaSTQ4F8GG-13" vertex="1">
                    <mxGeometry x="32.5" y="100" width="90" height="20" as="geometry"/>
                </mxCell>
                <mxCell id="eTvVOd9cNPmdmBw-fqID-7" value="GenBound rules" style="whiteSpace=wrap;html=1;fillColor=#a0522d;fontColor=#ffffff;strokeColor=#6D1F00;" parent="fROBw64iNzhaSTQ4F8GG-13" vertex="1">
                    <mxGeometry x="32.5" y="130" width="95" height="20" as="geometry"/>
                </mxCell>
                <mxCell id="QgZFyry-RJ3dXj2PPVCZ-2" value="HIR rules" style="whiteSpace=wrap;html=1;fillColor=#647687;strokeColor=#314354;fontColor=#ffffff;" parent="fROBw64iNzhaSTQ4F8GG-13" vertex="1">
                    <mxGeometry x="47.5" y="30" width="60" height="20" as="geometry"/>
                </mxCell>
                <mxCell id="QgZFyry-RJ3dXj2PPVCZ-3" value="MIR rules" style="whiteSpace=wrap;html=1;fillColor=#647687;strokeColor=#314354;fontColor=#ffffff;" parent="fROBw64iNzhaSTQ4F8GG-13" vertex="1">
                    <mxGeometry x="47.5" y="70" width="60" height="20" as="geometry"/>
                </mxCell>
                <mxCell id="mKT09To0TTilSE9evV7E-4" value="Diagnostic rules" style="whiteSpace=wrap;html=1;fillColor=#e3c800;fontColor=#000000;strokeColor=#B09500;" vertex="1" parent="fROBw64iNzhaSTQ4F8GG-13">
                    <mxGeometry x="27.5" y="200" width="95" height="20" as="geometry"/>
                </mxCell>
                <mxCell id="mKT09To0TTilSE9evV7E-9" style="edgeStyle=orthogonalEdgeStyle;html=1;exitX=0;exitY=0;exitDx=50;exitDy=39;exitPerimeter=0;entryX=0;entryY=0.5;entryDx=0;entryDy=0;" edge="1" parent="1" source="fROBw64iNzhaSTQ4F8GG-18" target="mKT09To0TTilSE9evV7E-12">
                    <mxGeometry relative="1" as="geometry">
                        <mxPoint x="600" y="929.9200000000001" as="targetPoint"/>
                    </mxGeometry>
                </mxCell>
                <mxCell id="fROBw64iNzhaSTQ4F8GG-18" value="match" style="shape=doubleArrow;whiteSpace=wrap;html=1;labelBackgroundColor=none;fillColor=none;" parent="1" vertex="1">
                    <mxGeometry x="550" y="820" width="100" height="60" as="geometry"/>
                </mxCell>
                <mxCell id="mKT09To0TTilSE9evV7E-5" style="edgeStyle=none;html=1;" edge="1" parent="1" source="mKT09To0TTilSE9evV7E-3" target="mKT09To0TTilSE9evV7E-4">
                    <mxGeometry relative="1" as="geometry"/>
                </mxCell>
                <mxCell id="mKT09To0TTilSE9evV7E-8" style="edgeStyle=none;html=1;entryX=0;entryY=0.5;entryDx=0;entryDy=0;" edge="1" parent="1" source="mKT09To0TTilSE9evV7E-4" target="mKT09To0TTilSE9evV7E-12">
                    <mxGeometry relative="1" as="geometry">
                        <mxPoint x="580.24" y="960.24" as="targetPoint"/>
                    </mxGeometry>
                </mxCell>
                <mxCell id="mKT09To0TTilSE9evV7E-17" value="" style="group" vertex="1" connectable="0" parent="1">
                    <mxGeometry x="650" y="930" width="150" height="80" as="geometry"/>
                </mxCell>
                <mxCell id="mKT09To0TTilSE9evV7E-12" value="Diagnostics" style="whiteSpace=wrap;html=1;verticalAlign=top;fillColor=none;dashed=1;" vertex="1" parent="mKT09To0TTilSE9evV7E-17">
                    <mxGeometry width="150" height="80" as="geometry"/>
                </mxCell>
                <mxCell id="mKT09To0TTilSE9evV7E-10" value="Errors" style="rounded=0;whiteSpace=wrap;html=1;fillColor=#e51400;fontColor=#ffffff;strokeColor=#B20000;" vertex="1" parent="mKT09To0TTilSE9evV7E-17">
                    <mxGeometry x="10" y="20" width="40" height="20" as="geometry"/>
                </mxCell>
                <mxCell id="mKT09To0TTilSE9evV7E-11" value="Warnings" style="rounded=0;whiteSpace=wrap;html=1;fillColor=#fa6800;fontColor=#000000;strokeColor=#C73500;" vertex="1" parent="mKT09To0TTilSE9evV7E-17">
                    <mxGeometry x="62.5" y="20" width="77.5" height="20" as="geometry"/>
                </mxCell>
                <mxCell id="mKT09To0TTilSE9evV7E-14" value="Notes" style="rounded=0;whiteSpace=wrap;html=1;fillColor=#1ba1e2;fontColor=#ffffff;strokeColor=#006EAF;" vertex="1" parent="mKT09To0TTilSE9evV7E-17">
                    <mxGeometry x="10" y="50" width="40" height="20" as="geometry"/>
                </mxCell>
                <mxCell id="mKT09To0TTilSE9evV7E-15" value="Suggestions" style="rounded=0;whiteSpace=wrap;html=1;fillColor=#60a917;fontColor=#ffffff;strokeColor=#2D7600;" vertex="1" parent="mKT09To0TTilSE9evV7E-17">
                    <mxGeometry x="62.5" y="50" width="77.5" height="20" as="geometry"/>
                </mxCell>
            </root>
        </mxGraphModel>
    </diagram>
    <diagram id="TW9mrTg9lW8eZP-wnEZy" name="hir-dataflow">
        <mxGraphModel dx="1135" dy="730" grid="1" gridSize="10" guides="1" tooltips="1" connect="1" arrows="1" fold="1" page="1" pageScale="1" pageWidth="850" pageHeight="1100" math="0" shadow="0">
            <root>
                <mxCell id="0"/>
                <mxCell id="1" parent="0"/>
                <mxCell id="_sVbNXx3CG4Xm02cRHb2-3" value="" style="html=1;labelBackgroundColor=none;labelBorderColor=none;fontColor=default;startArrow=none;startFill=0;endArrow=none;endFill=0;" parent="1" source="_sVbNXx3CG4Xm02cRHb2-1" target="_sVbNXx3CG4Xm02cRHb2-2" edge="1">
                    <mxGeometry relative="1" as="geometry"/>
                </mxCell>
                <mxCell id="_sVbNXx3CG4Xm02cRHb2-6" style="edgeStyle=none;html=1;labelBackgroundColor=none;labelBorderColor=none;fontColor=default;startArrow=none;startFill=0;endArrow=none;endFill=0;entryX=0.5;entryY=0;entryDx=0;entryDy=0;" parent="1" source="_sVbNXx3CG4Xm02cRHb2-1" target="_sVbNXx3CG4Xm02cRHb2-7" edge="1">
                    <mxGeometry relative="1" as="geometry">
                        <mxPoint x="405" y="250" as="targetPoint"/>
                    </mxGeometry>
                </mxCell>
                <mxCell id="_sVbNXx3CG4Xm02cRHb2-1" value="&lt;pre&gt;let slice = self.as_slice();&lt;/pre&gt;" style="rounded=0;whiteSpace=wrap;html=1;shadow=0;glass=0;labelBackgroundColor=none;sketch=0;fontColor=default;fillColor=none;" parent="1" vertex="1">
                    <mxGeometry x="175" y="160" width="210" height="30" as="geometry"/>
                </mxCell>
                <mxCell id="_sVbNXx3CG4Xm02cRHb2-5" value="" style="edgeStyle=none;html=1;labelBackgroundColor=none;labelBorderColor=none;fontColor=default;startArrow=none;startFill=0;endArrow=none;endFill=0;" parent="1" source="_sVbNXx3CG4Xm02cRHb2-2" target="_sVbNXx3CG4Xm02cRHb2-4" edge="1">
                    <mxGeometry relative="1" as="geometry"/>
                </mxCell>
                <mxCell id="_sVbNXx3CG4Xm02cRHb2-2" value="&lt;pre&gt;let from_ptr = slice.as_ptr();&lt;/pre&gt;" style="whiteSpace=wrap;html=1;fillColor=none;rounded=0;shadow=0;glass=0;labelBackgroundColor=none;sketch=0;" parent="1" vertex="1">
                    <mxGeometry x="35" y="250" width="230" height="30" as="geometry"/>
                </mxCell>
                <mxCell id="_sVbNXx3CG4Xm02cRHb2-14" style="edgeStyle=none;html=1;labelBackgroundColor=none;labelBorderColor=none;fontColor=default;startArrow=none;startFill=0;endArrow=none;endFill=0;" parent="1" source="_sVbNXx3CG4Xm02cRHb2-4" target="_sVbNXx3CG4Xm02cRHb2-13" edge="1">
                    <mxGeometry relative="1" as="geometry"/>
                </mxCell>
                <mxCell id="_sVbNXx3CG4Xm02cRHb2-4" value="&lt;pre&gt;let to_ptr = from_ptr as *const _;&lt;/pre&gt;" style="whiteSpace=wrap;html=1;fillColor=none;rounded=0;shadow=0;glass=0;labelBackgroundColor=none;sketch=0;" parent="1" vertex="1">
                    <mxGeometry x="15" y="345" width="270" height="25" as="geometry"/>
                </mxCell>
                <mxCell id="_sVbNXx3CG4Xm02cRHb2-12" style="edgeStyle=none;html=1;labelBackgroundColor=none;labelBorderColor=none;fontColor=default;startArrow=none;startFill=0;endArrow=none;endFill=0;" parent="1" source="_sVbNXx3CG4Xm02cRHb2-7" target="_sVbNXx3CG4Xm02cRHb2-10" edge="1">
                    <mxGeometry relative="1" as="geometry"/>
                </mxCell>
                <mxCell id="_sVbNXx3CG4Xm02cRHb2-7" value="&lt;pre&gt;let from_len = slice.len();&lt;/pre&gt;" style="whiteSpace=wrap;html=1;fillColor=none;rounded=0;shadow=0;glass=0;labelBackgroundColor=none;sketch=0;" parent="1" vertex="1">
                    <mxGeometry x="315" y="250" width="210" height="30" as="geometry"/>
                </mxCell>
                <mxCell id="_sVbNXx3CG4Xm02cRHb2-11" value="" style="edgeStyle=none;html=1;labelBackgroundColor=none;labelBorderColor=none;fontColor=default;startArrow=none;startFill=0;endArrow=none;endFill=0;" parent="1" source="_sVbNXx3CG4Xm02cRHb2-9" target="_sVbNXx3CG4Xm02cRHb2-10" edge="1">
                    <mxGeometry relative="1" as="geometry"/>
                </mxCell>
                <mxCell id="_sVbNXx3CG4Xm02cRHb2-9" value="&lt;pre&gt;let size = core::mem::size_of::&amp;lt;T&amp;gt;();&lt;/pre&gt;" style="whiteSpace=wrap;html=1;fillColor=none;rounded=0;shadow=0;glass=0;labelBackgroundColor=none;sketch=0;" parent="1" vertex="1">
                    <mxGeometry x="545" y="250" width="290" height="30" as="geometry"/>
                </mxCell>
                <mxCell id="_sVbNXx3CG4Xm02cRHb2-15" style="edgeStyle=none;html=1;labelBackgroundColor=none;labelBorderColor=none;fontColor=default;startArrow=none;startFill=0;endArrow=none;endFill=0;" parent="1" source="_sVbNXx3CG4Xm02cRHb2-10" target="_sVbNXx3CG4Xm02cRHb2-13" edge="1">
                    <mxGeometry relative="1" as="geometry"/>
                </mxCell>
                <mxCell id="_sVbNXx3CG4Xm02cRHb2-10" value="&lt;pre&gt;let to_len = from_len * size;&lt;/pre&gt;" style="whiteSpace=wrap;html=1;fillColor=none;rounded=0;shadow=0;glass=0;labelBackgroundColor=none;sketch=0;" parent="1" vertex="1">
                    <mxGeometry x="445" y="345" width="215" height="25" as="geometry"/>
                </mxCell>
                <mxCell id="_sVbNXx3CG4Xm02cRHb2-13" value="&lt;pre&gt;let target = core::slice::from_raw_parts(to_ptr, to_len);&lt;/pre&gt;" style="whiteSpace=wrap;html=1;fillColor=none;rounded=0;shadow=0;glass=0;labelBackgroundColor=none;sketch=0;" parent="1" vertex="1">
                    <mxGeometry x="140" y="430" width="405" height="25" as="geometry"/>
                </mxCell>
            </root>
        </mxGraphModel>
    </diagram>
</mxfile>